<svg width="615" height="780" viewBox="0 0 615 780" fill="none" xmlns="http://www.w3.org/2000/svg">
<g filter="url(#filter0_di_0_1)">
<path d="M24.9767 18.0183L18 18.5063V25.5V752V758.974L24.956 759.48L25.5 752C24.956 759.48 24.957 759.48 24.9584 759.48L24.9627 759.481L24.9769 759.482L25.0279 759.485L25.2203 759.499C25.3886 759.511 25.6368 759.528 25.9643 759.549C26.6193 759.593 27.5914 759.656 28.8755 759.733C31.4436 759.887 35.2594 760.1 40.2808 760.336C50.3236 760.807 65.1893 761.372 84.5417 761.749C123.246 762.501 179.9 762.5 251.813 759.494C324.032 756.474 368.841 747.402 395.816 738.904C409.313 734.651 418.377 730.533 424.189 727.368C427.095 725.785 429.189 724.439 430.617 723.435C431.331 722.933 431.878 722.516 432.277 722.197C432.305 722.174 432.333 722.152 432.36 722.13C432.665 721.946 433.094 721.684 433.643 721.345C434.801 720.629 436.489 719.57 438.649 718.17C442.968 715.37 449.177 711.209 456.815 705.717C472.085 694.734 493.087 678.412 516.109 656.991C540.107 634.662 557.106 601.017 568.03 573.653C573.538 559.856 577.593 547.418 580.274 538.422C581.616 533.921 582.616 530.273 583.283 527.737C583.617 526.469 583.868 525.479 584.037 524.798C584.061 524.704 584.082 524.616 584.103 524.534C584.269 524.178 584.479 523.715 584.727 523.147C585.322 521.78 586.132 519.805 587.051 517.249C588.89 512.137 591.169 504.694 593.05 495.136C596.817 476.008 598.985 448.441 592.884 414.185C586.944 380.838 582.365 361.254 576.841 345.132C571.964 330.897 566.382 319.483 558.829 304.037C557.836 302.005 556.808 299.904 555.743 297.717L555.563 297.348L555.344 297C534.181 263.435 515.98 238.736 494.495 218.153C472.96 197.523 448.423 181.311 414.892 164.311L414.884 164.307L414.876 164.303C388.749 151.131 374.323 147.216 350.377 146.009L349.713 145.976L349.054 146.06C329.107 148.596 318.738 151.377 304.732 159.515L304.611 159.586L304.493 159.66C291.224 168.047 284.919 174.507 276.283 187.305L276.136 187.522L276.005 187.749C270.391 197.47 266.638 205.514 264.304 213.901C261.967 222.304 261.161 230.668 261.001 240.882L260.993 241.403L261.057 241.919C262.501 253.62 264.999 262.844 269.95 271.26C274.854 279.597 281.834 286.57 291.24 294.296L291.688 294.664L292.187 294.958C303.108 301.406 308.911 303.969 316.96 305.346C334.912 309.868 341.597 313.155 352.685 319.458C373.242 332.07 382.926 341.088 398.4 360.381C411.331 380.564 415.839 390.588 421.144 407.122C424.929 437.504 424.759 452.739 421.187 477.177C412.082 502.673 407.148 512.333 398.722 523.701C374.77 549.533 361.253 560.369 336.617 574.297C303.085 589.29 282.094 594.644 239.208 598H233V395.5V356V355.948L232.999 355.897C231.965 280.644 229.556 247.37 220.794 210.754L220.757 210.598L220.712 210.443C209.872 172.439 199.32 143.969 185.747 119.455C172.13 94.8623 155.638 74.5473 133.245 52.6389L132.681 52.0872L132.015 51.6649C111.785 38.8454 95.4456 29.6084 78.9172 24.0242C62.1883 18.3724 45.6226 16.5742 24.9767 18.0183Z" stroke="#68C9F2" stroke-width="15"/>
</g>
<defs>
<filter id="filter0_di_0_1" x="0.5" y="0.0425415" width="613.705" height="779.624" filterUnits="userSpaceOnUse" color-interpolation-filters="sRGB">
<feFlood flood-opacity="0" result="BackgroundImageFix"/>
<feColorMatrix in="SourceAlpha" type="matrix" values="0 0 0 0 0 0 0 0 0 0 0 0 0 0 0 0 0 0 127 0" result="hardAlpha"/>
<feOffset/>
<feGaussianBlur stdDeviation="5"/>
<feColorMatrix type="matrix" values="0 0 0 0 0.443137 0 0 0 0 0.984314 0 0 0 0 0.980392 0 0 0 1 0"/>
<feBlend mode="normal" in2="BackgroundImageFix" result="effect1_dropShadow_0_1"/>
<feBlend mode="normal" in="SourceGraphic" in2="effect1_dropShadow_0_1" result="shape"/>
<feColorMatrix in="SourceAlpha" type="matrix" values="0 0 0 0 0 0 0 0 0 0 0 0 0 0 0 0 0 0 127 0" result="hardAlpha"/>
<feOffset dy="4"/>
<feGaussianBlur stdDeviation="2"/>
<feComposite in2="hardAlpha" operator="arithmetic" k2="-1" k3="1"/>
<feColorMatrix type="matrix" values="0 0 0 0 1 0 0 0 0 1 0 0 0 0 1 0 0 0 1 0"/>
<feBlend mode="normal" in2="shape" result="effect2_innerShadow_0_1"/>
</filter>
</defs>
</svg>
