<svg width="589" height="756" viewBox="0 0 589 756" fill="none" xmlns="http://www.w3.org/2000/svg">
<g filter="url(#filter0_di_2_6)">
<path d="M12.5 740V13.5C52.1889 10.7239 74.6889 20.4552 115 46C159.034 89.0803 178.96 124.988 200.5 200.5C209.053 236.24 211.466 268.79 212.5 344V383.5V593.5H226.5C270.487 590.075 292.345 584.521 327 569C352.713 554.49 366.846 543.118 391.5 516.5C400.791 504.026 406.042 493.56 415.5 467C419.314 441.19 419.484 425.225 415.5 393.5C409.853 375.793 405.082 365.166 391.5 344C375.391 323.882 365.074 314.225 343.5 301C331.766 294.325 324.454 290.757 305.5 286C298.627 284.858 293.751 282.847 283 276.5C264.69 261.461 258.248 251.257 255.5 229C255.81 209.23 258.603 198.368 269.5 179.5C277.608 167.484 283.185 161.784 295.5 154C308.336 146.541 317.629 143.963 337 141.5C359.748 142.646 373.158 146.224 398.5 159C464.722 192.575 493.928 222.274 536 289C554.5 327 560.656 337 572.5 403.5C584.344 470 564 510 564 510C564 510 543.505 597.159 498 639.5C452.495 681.841 415 704 415 704C415 704 382 734 238.5 740C95 746 12.5 740 12.5 740Z" stroke="#68C9F2" stroke-opacity="0.03" stroke-width="5"/>
</g>
<defs>
<filter id="filter0_di_2_6" x="0" y="0.542328" width="588.705" height="754.624" filterUnits="userSpaceOnUse" color-interpolation-filters="sRGB">
<feFlood flood-opacity="0" result="BackgroundImageFix"/>
<feColorMatrix in="SourceAlpha" type="matrix" values="0 0 0 0 0 0 0 0 0 0 0 0 0 0 0 0 0 0 127 0" result="hardAlpha"/>
<feOffset/>
<feGaussianBlur stdDeviation="5"/>
<feColorMatrix type="matrix" values="0 0 0 0 0.443137 0 0 0 0 0.984314 0 0 0 0 0.980392 0 0 0 1 0"/>
<feBlend mode="normal" in2="BackgroundImageFix" result="effect1_dropShadow_2_6"/>
<feBlend mode="normal" in="SourceGraphic" in2="effect1_dropShadow_2_6" result="shape"/>
<feColorMatrix in="SourceAlpha" type="matrix" values="0 0 0 0 0 0 0 0 0 0 0 0 0 0 0 0 0 0 127 0" result="hardAlpha"/>
<feOffset dy="4"/>
<feGaussianBlur stdDeviation="2"/>
<feComposite in2="hardAlpha" operator="arithmetic" k2="-1" k3="1"/>
<feColorMatrix type="matrix" values="0 0 0 0 1 0 0 0 0 1 0 0 0 0 1 0 0 0 1 0"/>
<feBlend mode="normal" in2="shape" result="effect2_innerShadow_2_6"/>
</filter>
</defs>
</svg>
