<?xml version="1.0" encoding="UTF-8"?>
<svg version="1.1" xmlns="http://www.w3.org/2000/svg" width="4568" height="1331">
<path d="M0 0 C31.17623444 0 59.49158243 6.62980125 85 25 C85.85754883 25.61633301 85.85754883 25.61633301 86.73242188 26.24511719 C108.2454286 41.94217728 123.78765373 62.07523102 137 85 C137.34836914 85.5882959 137.69673828 86.1765918 138.05566406 86.78271484 C169.40459378 139.90778789 177.74992648 205.12813194 178.31640625 265.7421875 C178.33729683 267.69187625 178.35838609 269.64156288 178.37965393 271.59124756 C178.43585869 276.90443984 178.48538722 282.21767359 178.53263092 287.53095245 C178.56268203 290.89538004 178.59409262 294.25979298 178.62567139 297.62420654 C178.9984353 337.96754168 179.10817841 378.310631 179.12211341 418.65548122 C179.12375046 423.28770545 179.12670323 427.91992614 179.13081557 432.55214882 C179.13799875 440.66752743 179.13929035 448.78288172 179.13438225 456.89826202 C179.13288604 459.60652011 179.13387825 462.31474113 179.13614082 465.02300262 C179.14721325 481.04305674 178.86868997 497.00195729 178 513 C179.77659152 512.95097347 181.55317609 512.90169485 183.32975769 512.85231018 C184.8137621 512.8111878 184.8137621 512.8111878 186.32774639 512.76923466 C226.92606453 511.58296767 266.83256013 501.29762665 300 477 C301.04027344 476.24332031 302.08054687 475.48664063 303.15234375 474.70703125 C332.33371251 453.07249312 350.92797256 425.30477944 357 389 C357.13277344 388.23816406 357.26554687 387.47632813 357.40234375 386.69140625 C361.95840592 354.67414746 352.74889671 320.06051588 334 294 C330.23394481 289.12492242 326.16801392 284.5321634 322 280 C321.38640625 279.31550781 320.7728125 278.63101562 320.140625 277.92578125 C304.83416496 261.67213928 284.40874132 251.61093186 263.30810547 245.40014648 C247.32476773 240.69548688 231.66383826 234.44011545 222.69140625 219.390625 C213.92413732 203.17096015 213.21194923 185.06772081 217.96875 167.40234375 C224.15281562 148.5367652 236.55746891 132.78384179 254.05859375 123.3515625 C274.25392286 113.41148455 298.71805927 112.77403873 320 120 C352.70413481 131.14723201 383.29677399 152.02158175 408.3359375 175.5234375 C410.51160937 177.5459829 412.72164473 179.47168264 415 181.375 C463.72696101 223.9734154 491.84648701 294.72920058 496.484375 357.94458008 C498.77462236 393.27549935 494.21846048 428.14512226 484 462 C483.73348633 462.88494141 483.46697266 463.76988281 483.19238281 464.68164062 C471.96456474 501.05582664 451.18575402 533.59791876 423.953125 560.046875 C422.14348386 561.85651614 420.51062848 563.72144153 418.875 565.6875 C380.57188253 609.96449818 324.83482162 630.14543649 268.375 637.6875 C267.30061676 637.83280655 267.30061676 637.83280655 266.20452881 637.98104858 C261.51168741 638.60625351 256.81298108 639.14861544 252.1065979 639.66106319 C249.98728036 639.8922855 247.86847846 640.12827153 245.75015259 640.36840916 C220.11624615 643.20765784 194.61157802 643.46286145 168.84243321 643.47317934 C163.00099312 643.47893719 157.15962161 643.50226335 151.31822205 643.52377319 C140.31211357 643.56191362 129.30602539 643.5863808 118.29986805 643.60489786 C98.51135449 643.6386452 78.72290088 643.6960663 58.93446058 643.75888956 C52.00076815 643.78034882 45.06709712 643.79563361 38.1333791 643.80572915 C33.84706198 643.81272837 29.56076052 643.82360242 25.27445412 643.83537102 C23.28418041 643.83993901 21.29390189 643.84277885 19.3036232 643.84379387 C16.59582068 643.84535907 13.88809939 643.85292062 11.18031311 643.86196899 C10.38736267 643.86090074 9.59441222 643.85983249 8.77743298 643.85873187 C5.58555262 643.8747218 3.0508478 643.98305073 0 645 C0 432.15 0 219.3 0 0 Z " fill="#0B2270" transform="translate(170,386)"/>
<path d="M0 0 C0.33 39.93 0.66 79.86 1 121 C6.28 119.02 11.56 117.04 17 115 C37.46527169 109.61440219 60.76103177 109.61095915 81 116 C82.14855469 116.350625 83.29710937 116.70125 84.48046875 117.0625 C107.89623286 125.11953711 125.04165491 143.55848488 135.86328125 165.328125 C154.66001705 205.17280403 155.74534009 257.72770352 141 299 C134.83951717 314.79536119 125.8630982 327.96981591 114 340 C113.20851563 340.804375 112.41703125 341.60875 111.6015625 342.4375 C87.42862782 365.56642089 53.2425046 371.60522342 21 371 C-8.3366496 369.99600789 -39.06582752 366.31139083 -67 357 C-67 242.82 -67 128.64 -67 11 C-62.68311184 9.76660338 -58.80620113 8.6948951 -54.45117188 7.94677734 C-53.41319458 7.76674164 -52.37521729 7.58670593 -51.30578613 7.4012146 C-50.20456421 7.21467316 -49.10334229 7.02813171 -47.96875 6.8359375 C-46.24392395 6.54053574 -46.24392395 6.54053574 -44.48425293 6.23916626 C-42.06064367 5.8254109 -39.63668484 5.41369859 -37.21240234 5.00390625 C-33.51143583 4.37693731 -29.81234994 3.73962113 -26.11328125 3.1015625 C-23.75271129 2.69989075 -21.39203752 2.29882855 -19.03125 1.8984375 C-17.37941711 1.61255264 -17.37941711 1.61255264 -15.69421387 1.32089233 C-14.65623657 1.14716095 -13.61825928 0.97342957 -12.54882812 0.79443359 C-11.64394653 0.64058197 -10.73906494 0.48673035 -9.8067627 0.32821655 C-6.55814758 -0.05166923 -3.2707512 0 0 0 Z M0 181 C0 222.91 0 264.82 0 308 C12.58052652 309.80065309 12.58052652 309.80065309 25.125 310.3125 C26.54365356 310.30512817 26.54365356 310.30512817 27.9909668 310.29760742 C42.27260725 310.05829146 53.35879282 306.06516486 63.8671875 296.2890625 C79.95340822 279.02436407 82.81883209 254.23804205 82.13623047 231.65283203 C81.19272172 213.27977458 77.95911857 194.32098379 64.0234375 181.12890625 C44.94426694 165.88837359 20.10648816 170.94675592 0 181 Z " fill="#020055" transform="translate(860,507)"/>
<path d="M0 0 C4.32876947 3.58089432 8.45564247 7.3750369 12.55078125 11.21875 C14.72645312 13.2412954 16.93648848 15.16699514 19.21484375 17.0703125 C67.94180476 59.6687279 96.06133076 130.42451308 100.69921875 193.63989258 C102.98946611 228.97081185 98.43330423 263.84043476 88.21484375 297.6953125 C87.94833008 298.58025391 87.68181641 299.46519531 87.40722656 300.37695312 C76.17940849 336.75113914 55.40059777 369.29323126 28.16796875 395.7421875 C26.35832761 397.55182864 24.72547223 399.41675403 23.08984375 401.3828125 C10.19840936 416.28483757 -5.8418745 428.2910952 -22.22265625 439.0703125 C-22.95081543 439.55330811 -23.67897461 440.03630371 -24.42919922 440.53393555 C-26.17358175 441.65419079 -27.97503595 442.6847153 -29.78515625 443.6953125 C-30.44515625 443.3653125 -31.10515625 443.0353125 -31.78515625 442.6953125 C-31.42389648 442.19418945 -31.06263672 441.69306641 -30.69042969 441.17675781 C5.02527576 391.42746501 33.28474786 333.38371257 39.21484375 271.6953125 C39.32441406 270.71433594 39.43398438 269.73335937 39.546875 268.72265625 C44.35604896 219.02785862 31.84434801 173.77516844 0.65234375 134.8828125 C-0.81371914 133.14252201 -2.29328826 131.41353288 -3.78515625 129.6953125 C-4.6359375 128.71046875 -5.48671875 127.725625 -6.36328125 126.7109375 C-34.4959018 94.74943682 -71.00924768 84.26480805 -112.04296875 79.7734375 C-157.76206408 74.75232768 -157.76206408 74.75232768 -169.52490234 60.40429688 C-179.58495054 46.7622323 -181.98994863 30.7045171 -180.16015625 14.1328125 C-176.9826031 -5.9150393 -166.28146573 -24.06066619 -149.91015625 -36.1796875 C-99.48256424 -68.84210886 -40.19599239 -32.5105044 0 0 Z " fill="#1B5A9B" transform="translate(565.78515625,550.3046875)"/>
<path d="M0 0 C0.83917969 0.79148437 1.67835938 1.58296875 2.54296875 2.3984375 C3.02813965 2.84413086 3.51331055 3.28982422 4.01318359 3.74902344 C27.13974032 25.09548726 40.91119005 57.0644659 42.65684509 88.44555664 C42.72243955 90.58643803 42.7591711 92.72541651 42.78125 94.8671875 C42.79108917 95.65670807 42.80092834 96.44622864 42.81106567 97.25967407 C43.21601118 138.21537071 36.48644054 176.10921835 6.91796875 206.5234375 C-15.11262743 228.38408592 -43.88312744 236.65788066 -74.31567383 236.6472168 C-100.09340308 236.39705242 -124.95921326 228.73370681 -144.45703125 211.3984375 C-145.18792969 210.80933594 -145.91882812 210.22023438 -146.671875 209.61328125 C-171.44641427 189.10571008 -183.26063619 155.86026682 -186.43603516 124.77709961 C-189.82882726 88.73708913 -184.43414505 48.17580498 -161.39453125 18.8359375 C-160.09634892 17.34418922 -158.783983 15.86465349 -157.45703125 14.3984375 C-156.79574219 13.59664062 -156.13445313 12.79484375 -155.453125 11.96875 C-137.85911677 -8.83300558 -112.47786816 -20.90844487 -85.70703125 -24.2890625 C-55.45089456 -26.60886417 -23.37704528 -20.6587842 0 0 Z M-104.578125 51.734375 C-119.52911812 72.93308043 -121.30867996 101.31842879 -117.73828125 126.32421875 C-115.00204681 142.06520381 -109.40121234 157.84572491 -96.4453125 168.12109375 C-85.76677104 174.98137481 -74.52255931 177.11633437 -62.03515625 174.75 C-54.57557121 172.70124073 -49.04580739 169.73730901 -43.45703125 164.3984375 C-42.9053125 163.87507813 -42.35359375 163.35171875 -41.78515625 162.8125 C-27.93470261 148.17671136 -25.0498233 125.36997348 -25.14453125 106.1484375 C-25.1487207 104.974021 -25.15291016 103.79960449 -25.15722656 102.58959961 C-25.40851533 83.129423 -29.086844 62.3847929 -42.70703125 47.5234375 C-51.44207975 39.53096583 -62.29890626 35.80011188 -74.046875 36.15234375 C-86.39086315 37.41275097 -96.61051094 42.10885337 -104.578125 51.734375 Z " fill="#020055" transform="translate(3859.45703125,641.6015625)"/>
<path d="M0 0 C0.83917969 0.79148437 1.67835938 1.58296875 2.54296875 2.3984375 C3.02813965 2.84413086 3.51331055 3.28982422 4.01318359 3.74902344 C27.13974032 25.09548726 40.91119005 57.0644659 42.65684509 88.44555664 C42.72243955 90.58643803 42.7591711 92.72541651 42.78125 94.8671875 C42.79108917 95.65670807 42.80092834 96.44622864 42.81106567 97.25967407 C43.21601118 138.21537071 36.48644054 176.10921835 6.91796875 206.5234375 C-15.11262743 228.38408592 -43.88312744 236.65788066 -74.31567383 236.6472168 C-100.09340308 236.39705242 -124.95921326 228.73370681 -144.45703125 211.3984375 C-145.18792969 210.80933594 -145.91882812 210.22023438 -146.671875 209.61328125 C-171.44641427 189.10571008 -183.26063619 155.86026682 -186.43603516 124.77709961 C-189.82882726 88.73708913 -184.43414505 48.17580498 -161.39453125 18.8359375 C-160.09634892 17.34418922 -158.783983 15.86465349 -157.45703125 14.3984375 C-156.79574219 13.59664062 -156.13445313 12.79484375 -155.453125 11.96875 C-137.85911677 -8.83300558 -112.47786816 -20.90844487 -85.70703125 -24.2890625 C-55.45089456 -26.60886417 -23.37704528 -20.6587842 0 0 Z M-104.578125 51.734375 C-119.52911812 72.93308043 -121.30867996 101.31842879 -117.73828125 126.32421875 C-115.00204681 142.06520381 -109.40121234 157.84572491 -96.4453125 168.12109375 C-85.76677104 174.98137481 -74.52255931 177.11633437 -62.03515625 174.75 C-54.57557121 172.70124073 -49.04580739 169.73730901 -43.45703125 164.3984375 C-42.9053125 163.87507813 -42.35359375 163.35171875 -41.78515625 162.8125 C-27.93470261 148.17671136 -25.0498233 125.36997348 -25.14453125 106.1484375 C-25.1487207 104.974021 -25.15291016 103.79960449 -25.15722656 102.58959961 C-25.40851533 83.129423 -29.086844 62.3847929 -42.70703125 47.5234375 C-51.44207975 39.53096583 -62.29890626 35.80011188 -74.046875 36.15234375 C-86.39086315 37.41275097 -96.61051094 42.10885337 -104.578125 51.734375 Z " fill="#020055" transform="translate(2786.45703125,641.6015625)"/>
<path d="M0 0 C0.83917969 0.79148437 1.67835938 1.58296875 2.54296875 2.3984375 C3.02813965 2.84413086 3.51331055 3.28982422 4.01318359 3.74902344 C27.13974032 25.09548726 40.91119005 57.0644659 42.65684509 88.44555664 C42.72243955 90.58643803 42.7591711 92.72541651 42.78125 94.8671875 C42.79108917 95.65670807 42.80092834 96.44622864 42.81106567 97.25967407 C43.21601118 138.21537071 36.48644054 176.10921835 6.91796875 206.5234375 C-15.11262743 228.38408592 -43.88312744 236.65788066 -74.31567383 236.6472168 C-100.09340308 236.39705242 -124.95921326 228.73370681 -144.45703125 211.3984375 C-145.18792969 210.80933594 -145.91882812 210.22023438 -146.671875 209.61328125 C-171.44641427 189.10571008 -183.26063619 155.86026682 -186.43603516 124.77709961 C-189.82882726 88.73708913 -184.43414505 48.17580498 -161.39453125 18.8359375 C-160.09634892 17.34418922 -158.783983 15.86465349 -157.45703125 14.3984375 C-156.79574219 13.59664062 -156.13445312 12.79484375 -155.453125 11.96875 C-137.85911677 -8.83300558 -112.47786816 -20.90844487 -85.70703125 -24.2890625 C-55.45089456 -26.60886417 -23.37704528 -20.6587842 0 0 Z M-104.578125 51.734375 C-119.52911812 72.93308043 -121.30867996 101.31842879 -117.73828125 126.32421875 C-115.00204681 142.06520381 -109.40121234 157.84572491 -96.4453125 168.12109375 C-85.76677104 174.98137481 -74.52255931 177.11633437 -62.03515625 174.75 C-54.57557121 172.70124073 -49.04580739 169.73730901 -43.45703125 164.3984375 C-42.9053125 163.87507813 -42.35359375 163.35171875 -41.78515625 162.8125 C-27.93470261 148.17671136 -25.0498233 125.36997348 -25.14453125 106.1484375 C-25.1487207 104.974021 -25.15291016 103.79960449 -25.15722656 102.58959961 C-25.40851533 83.129423 -29.086844 62.3847929 -42.70703125 47.5234375 C-51.44207975 39.53096583 -62.29890626 35.80011188 -74.046875 36.15234375 C-86.39086315 37.41275097 -96.61051094 42.10885337 -104.578125 51.734375 Z " fill="#020055" transform="translate(1761.45703125,641.6015625)"/>
<path d="M0 0 C20.83024207 21.59071122 23.00006757 53.80731821 22.92602539 82.17114258 C22.92574258 83.70998635 22.92590308 85.24883026 22.9264679 86.78767395 C22.92675222 90.92314798 22.92091502 95.0585924 22.91389394 99.19405961 C22.90759913 103.53152706 22.90705179 107.86899536 22.90586853 112.20646667 C22.90277315 120.40129504 22.89458417 128.59610991 22.88451904 136.79093236 C22.87330191 146.12841828 22.8678334 155.46590488 22.86282361 164.80339587 C22.85239987 183.9939382 22.83483551 203.18446801 22.8125 222.375 C17.2354603 223.48429291 11.65732922 224.58787399 6.07818604 225.6865387 C4.18669335 226.05980784 2.29548938 226.43454357 0.40460205 226.81086731 C-21.3582255 231.13987311 -42.98102093 233.87211691 -65.1875 234.375 C-66.07356934 234.39691406 -66.95963867 234.41882813 -67.87255859 234.44140625 C-100.25365827 235.13565888 -135.21331182 232.70693178 -160.12890625 209.5234375 C-176.59790573 192.33567714 -179.65313107 169.88828035 -179.40234375 147.1640625 C-178.8778173 127.12780374 -171.16358704 110.37039546 -156.7265625 96.50390625 C-130.84686951 74.80477905 -93.29352311 72.04571677 -61.01171875 74.76171875 C-54.53654511 75.41896306 -48.4081781 76.47445907 -42.1875 78.375 C-42.52209539 65.97824085 -43.72344435 54.31931661 -52.64453125 44.82421875 C-63.50572474 34.57349047 -79.00917672 34.02405735 -93.1875 34.375 C-110.45121602 35.17630228 -127.97859587 37.27323874 -144.41015625 42.859375 C-146.1875 43.375 -146.1875 43.375 -149.1875 43.375 C-154.05474805 13.46092236 -154.05474805 13.46092236 -156 0.8125 C-156.1235083 0.03036133 -156.2470166 -0.75177734 -156.37426758 -1.55761719 C-156.98943628 -5.61782088 -157.31075099 -9.51879589 -157.1875 -13.625 C-151.08422154 -16.08058806 -145.05304355 -17.74783753 -138.625 -19.125 C-137.63137451 -19.33930664 -136.63774902 -19.55361328 -135.61401367 -19.77441406 C-124.87998946 -22.01182915 -114.07861011 -23.41638272 -103.1875 -24.625 C-102.09824219 -24.75777344 -101.00898438 -24.89054688 -99.88671875 -25.02734375 C-64.75036264 -28.73928875 -26.79043037 -24.83907884 0 0 Z M-107.1875 133.375 C-113.07437636 141.29183373 -113.34560214 149.93790321 -112.1875 159.375 C-110.32130995 166.32187013 -106.81428615 170.56954768 -100.6484375 174.1953125 C-91.43464243 178.6120841 -81.77388265 179.5635837 -71.6875 179.5 C-70.91647949 179.49734131 -70.14545898 179.49468262 -69.35107422 179.49194336 C-55.64397641 179.48929662 -55.64397641 179.48929662 -42.1875 177.375 C-42.1875 160.215 -42.1875 143.055 -42.1875 125.375 C-61.02177579 119.99377835 -92.56740932 117.73490299 -107.1875 133.375 Z " fill="#020055" transform="translate(3277.1875,642.625)"/>
<path d="M0 0 C20.83024207 21.59071122 23.00006757 53.80731821 22.92602539 82.17114258 C22.92574258 83.70998635 22.92590308 85.24883026 22.9264679 86.78767395 C22.92675222 90.92314798 22.92091502 95.0585924 22.91389394 99.19405961 C22.90759913 103.53152706 22.90705179 107.86899536 22.90586853 112.20646667 C22.90277315 120.40129504 22.89458417 128.59610991 22.88451904 136.79093236 C22.87330191 146.12841828 22.8678334 155.46590488 22.86282361 164.80339587 C22.85239987 183.9939382 22.83483551 203.18446801 22.8125 222.375 C17.2354603 223.48429291 11.65732922 224.58787399 6.07818604 225.6865387 C4.18669335 226.05980784 2.29548938 226.43454357 0.40460205 226.81086731 C-21.3582255 231.13987311 -42.98102093 233.87211691 -65.1875 234.375 C-66.07356934 234.39691406 -66.95963867 234.41882813 -67.87255859 234.44140625 C-100.25365827 235.13565888 -135.21331182 232.70693178 -160.12890625 209.5234375 C-176.59790573 192.33567714 -179.65313107 169.88828035 -179.40234375 147.1640625 C-178.8778173 127.12780374 -171.16358704 110.37039546 -156.7265625 96.50390625 C-130.84686951 74.80477905 -93.29352311 72.04571677 -61.01171875 74.76171875 C-54.53654511 75.41896306 -48.4081781 76.47445907 -42.1875 78.375 C-42.52209539 65.97824085 -43.72344435 54.31931661 -52.64453125 44.82421875 C-63.50572474 34.57349047 -79.00917672 34.02405735 -93.1875 34.375 C-110.45121602 35.17630228 -127.97859587 37.27323874 -144.41015625 42.859375 C-146.1875 43.375 -146.1875 43.375 -149.1875 43.375 C-154.05474805 13.46092236 -154.05474805 13.46092236 -156 0.8125 C-156.1235083 0.03036133 -156.2470166 -0.75177734 -156.37426758 -1.55761719 C-156.98943628 -5.61782088 -157.31075099 -9.51879589 -157.1875 -13.625 C-151.08422154 -16.08058806 -145.05304355 -17.74783753 -138.625 -19.125 C-137.63137451 -19.33930664 -136.63774902 -19.55361328 -135.61401367 -19.77441406 C-124.87998946 -22.01182915 -114.07861011 -23.41638272 -103.1875 -24.625 C-102.09824219 -24.75777344 -101.00898437 -24.89054688 -99.88671875 -25.02734375 C-64.75036264 -28.73928875 -26.79043037 -24.83907884 0 0 Z M-107.1875 133.375 C-113.07437636 141.29183373 -113.34560214 149.93790321 -112.1875 159.375 C-110.32130995 166.32187013 -106.81428615 170.56954768 -100.6484375 174.1953125 C-91.43464243 178.6120841 -81.77388265 179.5635837 -71.6875 179.5 C-70.91647949 179.49734131 -70.14545898 179.49468262 -69.35107422 179.49194336 C-55.64397641 179.48929662 -55.64397641 179.48929662 -42.1875 177.375 C-42.1875 160.215 -42.1875 143.055 -42.1875 125.375 C-61.02177579 119.99377835 -92.56740932 117.73490299 -107.1875 133.375 Z " fill="#020055" transform="translate(1223.1875,642.625)"/>
<path d="M0 0 C0.71414063 0.59039063 1.42828125 1.18078125 2.1640625 1.7890625 C23.52732409 21.10962178 28.04264664 52.32108328 29.82234955 79.45045853 C30.4182138 91.35611291 30.2462706 103.30036487 30.20278788 115.21756625 C30.19007819 119.30405905 30.1890944 123.39055652 30.18673706 127.47706604 C30.18058059 135.17575933 30.16425093 142.87439417 30.14403808 150.573062 C30.11725953 161.0043159 30.10665917 171.43558638 30.09503365 181.86686611 C30.07636436 198.24462098 30.03648057 214.62225266 30 231 C7.89 231 -14.22 231 -37 231 C-37.04898438 221.28175781 -37.09796875 211.56351563 -37.1484375 201.55078125 C-37.18386439 195.35741348 -37.21977066 189.16405448 -37.2578125 182.97070312 C-37.31797414 173.16188651 -37.37629798 163.35308614 -37.421875 153.54418945 C-37.45509403 146.39687676 -37.49508324 139.24963738 -37.54279006 132.1024062 C-37.56776222 128.32739775 -37.58962488 124.55243605 -37.60334396 120.77736855 C-35.85253485 82.23065018 -35.85253485 82.23065018 -50 48 C-57.12290768 41.06960334 -66.54037879 39.63981582 -76.13085938 39.6875 C-77.18080078 39.708125 -78.23074219 39.72875 -79.3125 39.75 C-80.35083984 39.75515625 -81.38917969 39.7603125 -82.45898438 39.765625 C-90.03853394 39.84071651 -97.41268762 40.41636059 -105 41 C-105 103.7 -105 166.4 -105 231 C-127.11 231 -149.22 231 -172 231 C-172 152.13 -172 73.26 -172 -8 C-157.34562497 -12.50903847 -157.34562497 -12.50903847 -151.79296875 -13.59765625 C-150.55869141 -13.84040283 -149.32441406 -14.08314941 -148.05273438 -14.33325195 C-146.77720703 -14.57390381 -145.50167969 -14.81455566 -144.1875 -15.0625 C-143.51968506 -15.19006683 -142.85187012 -15.31763367 -142.16381836 -15.44906616 C-129.50649899 -17.85884816 -116.82158477 -19.7137419 -104 -21 C-102.10507813 -21.19722656 -102.10507813 -21.19722656 -100.171875 -21.3984375 C-65.72410708 -24.30840876 -27.5239566 -23.55653943 0 0 Z " fill="#020055" transform="translate(4125,640)"/>
<path d="M0 0 C0.71414062 0.59039063 1.42828125 1.18078125 2.1640625 1.7890625 C23.52732409 21.10962178 28.04264664 52.32108328 29.82234955 79.45045853 C30.4182138 91.35611291 30.2462706 103.30036487 30.20278788 115.21756625 C30.19007819 119.30405905 30.1890944 123.39055652 30.18673706 127.47706604 C30.18058059 135.17575933 30.16425093 142.87439417 30.14403808 150.573062 C30.11725953 161.0043159 30.10665917 171.43558638 30.09503365 181.86686611 C30.07636436 198.24462098 30.03648057 214.62225266 30 231 C7.89 231 -14.22 231 -37 231 C-37.04898438 221.28175781 -37.09796875 211.56351563 -37.1484375 201.55078125 C-37.18386439 195.35741348 -37.21977066 189.16405448 -37.2578125 182.97070312 C-37.31797414 173.16188651 -37.37629798 163.35308614 -37.421875 153.54418945 C-37.45509403 146.39687676 -37.49508324 139.24963738 -37.54279006 132.1024062 C-37.56776222 128.32739775 -37.58962488 124.55243605 -37.60334396 120.77736855 C-35.85253485 82.23065018 -35.85253485 82.23065018 -50 48 C-57.12290768 41.06960334 -66.54037879 39.63981582 -76.13085938 39.6875 C-77.18080078 39.708125 -78.23074219 39.72875 -79.3125 39.75 C-80.35083984 39.75515625 -81.38917969 39.7603125 -82.45898438 39.765625 C-90.03853394 39.84071651 -97.41268762 40.41636059 -105 41 C-105 103.7 -105 166.4 -105 231 C-127.11 231 -149.22 231 -172 231 C-172 152.13 -172 73.26 -172 -8 C-157.34562497 -12.50903847 -157.34562497 -12.50903847 -151.79296875 -13.59765625 C-150.55869141 -13.84040283 -149.32441406 -14.08314941 -148.05273438 -14.33325195 C-146.77720703 -14.57390381 -145.50167969 -14.81455566 -144.1875 -15.0625 C-143.51968506 -15.19006683 -142.85187012 -15.31763367 -142.16381836 -15.44906616 C-129.50649899 -17.85884816 -116.82158477 -19.7137419 -104 -21 C-102.10507813 -21.19722656 -102.10507813 -21.19722656 -100.171875 -21.3984375 C-65.72410708 -24.30840876 -27.5239566 -23.55653943 0 0 Z " fill="#020055" transform="translate(2522,640)"/>
<path d="M0 0 C0.71414062 0.59039063 1.42828125 1.18078125 2.1640625 1.7890625 C23.52732409 21.10962178 28.04264664 52.32108328 29.82234955 79.45045853 C30.4182138 91.35611291 30.2462706 103.30036487 30.20278788 115.21756625 C30.19007819 119.30405905 30.1890944 123.39055652 30.18673706 127.47706604 C30.18058059 135.17575933 30.16425093 142.87439417 30.14403808 150.573062 C30.11725953 161.0043159 30.10665917 171.43558638 30.09503365 181.86686611 C30.07636436 198.24462098 30.03648057 214.62225266 30 231 C7.89 231 -14.22 231 -37 231 C-37.04898438 221.28175781 -37.09796875 211.56351563 -37.1484375 201.55078125 C-37.18386439 195.35741348 -37.21977066 189.16405448 -37.2578125 182.97070312 C-37.31797414 173.16188651 -37.37629798 163.35308614 -37.421875 153.54418945 C-37.45509403 146.39687676 -37.49508324 139.24963738 -37.54279006 132.1024062 C-37.56776222 128.32739775 -37.58962488 124.55243605 -37.60334396 120.77736855 C-35.85253485 82.23065018 -35.85253485 82.23065018 -50 48 C-57.12290768 41.06960334 -66.54037879 39.63981582 -76.13085938 39.6875 C-77.18080078 39.708125 -78.23074219 39.72875 -79.3125 39.75 C-80.35083984 39.75515625 -81.38917969 39.7603125 -82.45898438 39.765625 C-90.03853394 39.84071651 -97.41268762 40.41636059 -105 41 C-105 103.7 -105 166.4 -105 231 C-127.11 231 -149.22 231 -172 231 C-172 152.13 -172 73.26 -172 -8 C-157.34562497 -12.50903847 -157.34562497 -12.50903847 -151.79296875 -13.59765625 C-150.55869141 -13.84040283 -149.32441406 -14.08314941 -148.05273438 -14.33325195 C-146.77720703 -14.57390381 -145.50167969 -14.81455566 -144.1875 -15.0625 C-143.51968506 -15.19006683 -142.85187012 -15.31763367 -142.16381836 -15.44906616 C-129.50649899 -17.85884816 -116.82158477 -19.7137419 -104 -21 C-102.10507813 -21.19722656 -102.10507813 -21.19722656 -100.171875 -21.3984375 C-65.72410708 -24.30840876 -27.5239566 -23.55653943 0 0 Z " fill="#020055" transform="translate(2261,640)"/>
<path d="M0 0 C1.35811063 3.27353641 0.83728149 5.83191041 0.10375977 9.22753906 C-0.22669594 10.78870453 -0.22669594 10.78870453 -0.56382751 12.38140869 C-0.80960037 13.49820007 -1.05537323 14.61499146 -1.30859375 15.765625 C-1.55416519 16.91415955 -1.79973663 18.06269409 -2.05274963 19.24603271 C-2.83939689 22.91585734 -3.6382895 26.58289306 -4.4375 30.25 C-4.97281348 32.73680531 -5.50732865 35.22378262 -6.04101562 37.7109375 C-7.35141851 43.80931801 -8.67188632 49.90545352 -10 56 C-14.07163882 55.46941729 -17.9591174 54.84706512 -21.890625 53.66015625 C-23.20353516 53.2724707 -23.20353516 53.2724707 -24.54296875 52.87695312 C-26.33225067 52.33861939 -28.12131729 51.79956945 -29.91015625 51.25976562 C-41.37228659 47.87818544 -52.03736699 46.63696263 -64 46.625 C-65.93359375 46.58826172 -65.93359375 46.58826172 -67.90625 46.55078125 C-76.17065912 46.52558488 -85.13314353 46.85792196 -91.74267578 52.4831543 C-94.68530474 55.84519363 -95.87941895 58.77007328 -96.3125 63.1875 C-95.91261428 68.06610576 -95.13223348 71.18396907 -92 75 C-81.7235991 83.44986453 -68.1359922 87.91703286 -56 93 C-23.81196355 106.51719583 -23.81196355 106.51719583 -12 117 C-10.98099609 117.80824219 -10.98099609 117.80824219 -9.94140625 118.6328125 C2.27072445 128.55949719 8.75990243 143.16882444 10.77294922 158.59863281 C12.07214332 172.33935667 12.18212753 186.74754394 8 200 C7.73316406 200.88171875 7.46632812 201.7634375 7.19140625 202.671875 C1.20523109 219.80563857 -12.7016339 230.49899802 -28.140625 238.66015625 C-68.08804499 257.52421569 -122.08878508 251.41205868 -162.3125 237.1875 C-167.83022388 235.16977612 -167.83022388 235.16977612 -169 234 C-168.81081541 226.94239986 -167.35469974 219.9393895 -166.00390625 213.03125 C-165.81030014 212.02912476 -165.61669403 211.02699951 -165.41722107 209.99450684 C-165.01024343 207.89659489 -164.60087642 205.79914516 -164.18920898 203.70214844 C-163.5591347 200.48280512 -162.94234934 197.26109093 -162.32617188 194.0390625 C-161.9278854 191.99463525 -161.5288248 189.95035862 -161.12890625 187.90625 C-160.85379967 186.4594989 -160.85379967 186.4594989 -160.57313538 184.98352051 C-160.30792336 183.65073059 -160.30792336 183.65073059 -160.03735352 182.29101562 C-159.88492691 181.50843384 -159.73250031 180.72585205 -159.57545471 179.91955566 C-159 178 -159 178 -157 176 C-156.28158936 176.25168945 -155.56317871 176.50337891 -154.82299805 176.76269531 C-140.38887723 181.78626204 -126.12406415 186.58189183 -111 189 C-109.80632812 189.19207031 -108.61265625 189.38414062 -107.3828125 189.58203125 C-101.13952587 190.31815599 -94.8393001 190.1843283 -88.5625 190.1875 C-87.29083984 190.19974609 -86.01917969 190.21199219 -84.70898438 190.22460938 C-70.86997881 190.34720986 -70.86997881 190.34720986 -59 184 C-56.70234013 180.13690154 -55.98516442 176.86046368 -56.0625 172.375 C-58.28196321 164.38493246 -63.11533522 160.93138099 -70 157 C-79.07808802 152.03659566 -88.43139488 147.92402656 -98 144 C-124.51170342 133.12473185 -147.26542837 121.60892583 -159 94 C-166.04182602 73.80311439 -165.18773447 49.36825022 -156.50390625 29.875 C-147.4793389 12.62284008 -132.15278978 0.62042921 -114 -6 C-79.71534587 -16.54629768 -32.72393456 -15.54967103 0 0 Z " fill="#020055" transform="translate(4369,629)"/>
<path d="M0 0 C23.43 0 46.86 0 71 0 C76.44919274 19.61709387 76.44919274 19.61709387 78.41941833 26.84255981 C90.97720081 97.04629037 90.97720081 97.04629037 119 159 C136.4980576 106.55505807 152.58749484 53.65002064 166 0 C189.1 0 212.2 0 236 0 C231.39406914 18.42372343 231.39406914 18.42372343 228.78515625 26.875 C228.49346558 27.83082474 228.2017749 28.78664948 227.90124512 29.7714386 C226.95998791 32.84918372 226.01197711 35.92478148 225.0625 39 C224.73297333 40.07035492 224.40344666 41.14070984 224.06393433 42.24349976 C203.09267732 110.32586529 178.88189587 176.9703455 149.046875 241.70703125 C148.67401367 242.5163208 148.30115234 243.32561035 147.91699219 244.15942383 C147 246 147 246 146 247 C144.22008076 247.09370624 142.43643261 247.11744271 140.65405273 247.11352539 C139.5129454 247.11344986 138.37183807 247.11337433 137.19615173 247.11329651 C135.9545076 247.10813522 134.71286346 247.10297394 133.43359375 247.09765625 C131.53795433 247.09553383 131.53795433 247.09553383 129.60401917 247.09336853 C126.23875111 247.08870582 122.8735501 247.0797148 119.50830078 247.06866455 C116.0765033 247.05844846 112.64469891 247.05387049 109.21289062 247.04882812 C102.47524176 247.0377738 95.73762475 247.0210171 89 247 C54.84029785 174.06052345 27.82928978 98.16485451 5.125 20.9375 C4.86143707 20.04375671 4.59787415 19.15001343 4.32632446 18.22918701 C3.59007855 15.72585199 2.86008931 13.22079732 2.1328125 10.71484375 C1.80583122 9.6025515 1.80583122 9.6025515 1.47224426 8.4677887 C0.63111607 5.54255558 0 3.06110541 0 0 Z " fill="#020055" transform="translate(2847,624)"/>
<path d="M0 0 C0 24.09 0 48.18 0 73 C26.4 73 52.8 73 80 73 C80 92.47 80 111.94 80 132 C53.6 132 27.2 132 0 132 C0.12017956 148.18758795 0.12017956 148.18758795 0.2578125 164.375 C0.3178916 170.98662394 0.37601905 177.59822106 0.421875 184.20996094 C0.45901534 189.54633202 0.50544938 194.88255182 0.55806351 200.21879196 C0.57645595 202.24468684 0.59161842 204.27061395 0.60334396 206.29655838 C0.19252055 234.73642896 0.19252055 234.73642896 13 259 C22.88972924 266.94031146 37.45577289 265.95500861 49.38623047 264.76123047 C58.13021766 263.66303055 66.44372642 261.87556265 74.71484375 258.76953125 C77 258 77 258 80 258 C81.28646017 265.33153603 82.56766887 272.66397573 83.84521484 279.99707031 C84.28052576 282.49207383 84.71704253 284.98686728 85.15478516 287.48144531 C85.78344085 291.06521045 86.40776925 294.64970642 87.03125 298.234375 C87.32654602 299.90956207 87.32654602 299.90956207 87.62780762 301.61859131 C87.80799438 302.65936829 87.98818115 303.70014526 88.17382812 304.77246094 C88.33371216 305.68735291 88.49359619 306.60224487 88.6583252 307.54486084 C89 310 89 310 89 314 C68.49089487 321.53088316 49.30942536 326.42970428 27.25 326.3125 C26.55233521 326.31100952 25.85467041 326.30951904 25.13586426 326.3079834 C0.46398143 326.21346592 -23.39345006 321.54865245 -42 304 C-66.65251178 278.77033911 -67.17459323 241.40776461 -67.11352539 208.30712891 C-67.11324282 206.14745586 -67.11340261 203.98778273 -67.1139679 201.82810974 C-67.11425315 196.00473581 -67.10840054 190.18138274 -67.10139394 184.35801363 C-67.09511496 178.25750619 -67.09455302 172.15699821 -67.09336853 166.05648804 C-67.09026856 154.52196915 -67.08207325 142.98745981 -67.07201904 131.45294511 C-67.06081635 118.31381488 -67.055337 105.17468418 -67.05032361 92.03555036 C-67.03988945 65.02369496 -67.02231598 38.01184801 -67 11 C-58.70775607 9.56282966 -50.41505211 8.12835608 -42.12174511 6.69733429 C-38.27095478 6.03278752 -34.42033033 5.36730882 -30.57006836 4.69970703 C-26.85518181 4.05561334 -23.13988151 3.41395892 -19.42428017 2.77400208 C-18.00594346 2.52927188 -16.58775871 2.28365931 -15.16972923 2.03715515 C-13.18541451 1.69236476 -11.20050789 1.35098611 -9.21557617 1.00976562 C-8.08528488 0.81435181 -6.95499359 0.61893799 -5.79045105 0.41760254 C-3 0 -3 0 0 0 Z " fill="#020055" transform="translate(3423,551)"/>
<path d="M0 0 C0.00059709 0.59388305 0.00119418 1.1877661 0.00180936 1.7996456 C0.03773629 37.03106562 0.09442584 72.26239304 0.17792095 107.49373321 C0.1879379 111.72799953 0.19778212 115.96226623 0.20751953 120.1965332 C0.2094609 121.03946715 0.21140228 121.88240109 0.21340248 122.75087849 C0.24438782 136.38322978 0.26139344 150.01556426 0.27319422 163.64794412 C0.28562376 177.64551834 0.31316578 191.64300459 0.35461307 205.64052325 C0.37969695 214.27141708 0.39312102 222.90216491 0.39142957 231.5330957 C0.39139972 237.45897682 0.4061052 243.3847097 0.43216428 249.31053301 C0.44675086 252.72481052 0.45506477 256.13878407 0.44580269 259.55308723 C0.43913852 263.26668527 0.45714328 266.97940698 0.48101807 270.69291687 C0.46937744 272.28782401 0.46937744 272.28782401 0.45750165 273.9149515 C0.55483649 282.51695099 1.94437897 292.3444877 7.125 299.5 C15.60258675 306.87181456 25.27551444 308.29765197 36 310 C34.52321545 322.90267824 32.49472539 335.68957878 30.375 348.5 C30.04659668 350.49865221 29.71846994 352.49734988 29.390625 354.49609375 C28.59692884 359.33125781 27.79952262 364.16579611 27 369 C8.53662343 369.2302704 8.53662343 369.2302704 -0.5625 367.8125 C-1.44180176 367.6786792 -2.32110352 367.5448584 -3.22705078 367.40698242 C-22.17052071 364.32192268 -41.61429683 357.36009057 -53.49609375 341.53710938 C-67.6944803 321.72919634 -67.4568398 298.71366306 -67.34819686 275.3088088 C-67.3350674 271.75081117 -67.33963772 268.19282649 -67.34190369 264.6348114 C-67.3434659 258.4914491 -67.33416794 252.34818343 -67.31719017 246.20484543 C-67.29266031 237.32296295 -67.28498071 228.44112651 -67.2812262 219.55921383 C-67.27468347 205.14394169 -67.2547819 190.72872088 -67.22631836 176.31347656 C-67.19872107 162.32226821 -67.17751536 148.33107388 -67.16479492 134.33984375 C-67.16400675 133.47535706 -67.16321858 132.61087037 -67.16240653 131.72018711 C-67.15849101 127.38269388 -67.15469998 123.04520056 -67.15097082 118.70770717 C-67.11994286 82.80510189 -67.06716697 46.90255497 -67 11 C-62.82542034 9.79001721 -58.73568287 8.6827813 -54.45117188 7.94677734 C-53.41319458 7.76674164 -52.37521729 7.58670593 -51.30578613 7.4012146 C-50.20456421 7.21467316 -49.10334229 7.02813171 -47.96875 6.8359375 C-46.24392395 6.54053574 -46.24392395 6.54053574 -44.48425293 6.23916626 C-42.06064367 5.8254109 -39.63668484 5.41369859 -37.21240234 5.00390625 C-33.51143583 4.37693731 -29.81234994 3.73962113 -26.11328125 3.1015625 C-23.75271129 2.69989075 -21.39203752 2.29882855 -19.03125 1.8984375 C-17.37941711 1.61255264 -17.37941711 1.61255264 -15.69421387 1.32089233 C-14.65623657 1.14716095 -13.61825928 0.97342957 -12.54882812 0.79443359 C-11.64394653 0.64058197 -10.73906494 0.48673035 -9.8067627 0.32821655 C-6.5212047 -0.05598925 -3.3054988 -0.02039581 0 0 Z " fill="#020055" transform="translate(1513,507)"/>
<path d="M0 0 C0.00059709 0.59388305 0.00119418 1.1877661 0.00180936 1.7996456 C0.03773629 37.03106562 0.09442584 72.26239304 0.17792095 107.49373321 C0.1879379 111.72799953 0.19778212 115.96226623 0.20751953 120.1965332 C0.2094609 121.03946715 0.21140228 121.88240109 0.21340248 122.75087849 C0.24438782 136.38322978 0.26139344 150.01556426 0.27319422 163.64794412 C0.28562376 177.64551834 0.31316578 191.64300459 0.35461307 205.64052325 C0.37969695 214.27141708 0.39312102 222.90216491 0.39142957 231.5330957 C0.39139972 237.45897682 0.4061052 243.3847097 0.43216428 249.31053301 C0.44675086 252.72481052 0.45506477 256.13878407 0.44580269 259.55308723 C0.43913852 263.26668527 0.45714328 266.97940698 0.48101807 270.69291687 C0.46937744 272.28782401 0.46937744 272.28782401 0.45750165 273.9149515 C0.55483649 282.51695099 1.94437897 292.3444877 7.125 299.5 C15.60258675 306.87181456 25.27551444 308.29765197 36 310 C34.52321545 322.90267824 32.49472539 335.68957878 30.375 348.5 C30.04659668 350.49865221 29.71846994 352.49734988 29.390625 354.49609375 C28.59692884 359.33125781 27.79952262 364.16579611 27 369 C8.53662343 369.2302704 8.53662343 369.2302704 -0.5625 367.8125 C-1.44180176 367.6786792 -2.32110352 367.5448584 -3.22705078 367.40698242 C-22.17052071 364.32192268 -41.61429683 357.36009057 -53.49609375 341.53710938 C-67.6944803 321.72919634 -67.4568398 298.71366306 -67.34819686 275.3088088 C-67.3350674 271.75081117 -67.33963772 268.19282649 -67.34190369 264.6348114 C-67.3434659 258.4914491 -67.33416794 252.34818343 -67.31719017 246.20484543 C-67.29266031 237.32296295 -67.28498071 228.44112651 -67.2812262 219.55921383 C-67.27468347 205.14394169 -67.2547819 190.72872088 -67.22631836 176.31347656 C-67.19872107 162.32226821 -67.17751536 148.33107388 -67.16479492 134.33984375 C-67.16400675 133.47535706 -67.16321858 132.61087037 -67.16240653 131.72018711 C-67.15849101 127.38269388 -67.15469998 123.04520056 -67.15097082 118.70770717 C-67.11994286 82.80510189 -67.06716697 46.90255497 -67 11 C-62.82542034 9.79001721 -58.73568287 8.6827813 -54.45117188 7.94677734 C-53.41319458 7.76674164 -52.37521729 7.58670593 -51.30578613 7.4012146 C-50.20456421 7.21467316 -49.10334229 7.02813171 -47.96875 6.8359375 C-46.24392395 6.54053574 -46.24392395 6.54053574 -44.48425293 6.23916626 C-42.06064367 5.8254109 -39.63668484 5.41369859 -37.21240234 5.00390625 C-33.51143583 4.37693731 -29.81234994 3.73962113 -26.11328125 3.1015625 C-23.75271129 2.69989075 -21.39203752 2.29882855 -19.03125 1.8984375 C-17.37941711 1.61255264 -17.37941711 1.61255264 -15.69421387 1.32089233 C-14.65623657 1.14716095 -13.61825928 0.97342957 -12.54882812 0.79443359 C-11.64394653 0.64058197 -10.73906494 0.48673035 -9.8067627 0.32821655 C-6.5212047 -0.05598925 -3.3054988 -0.02039581 0 0 Z " fill="#020055" transform="translate(1373,507)"/>
<path d="M0 0 C1.76297641 1.50577163 3.51428389 3.02538464 5.25 4.5625 C5.88679687 5.11550781 6.52359375 5.66851562 7.1796875 6.23828125 C21.75638424 19.77378536 32.29944539 42.28583998 33.390625 62.1184082 C34.27819435 88.80539959 28.6846688 109.93710401 10.828125 130.328125 C-5.41871758 147.53631922 -27.3514973 157.93960985 -51.125 158.765625 C-77.38022089 159.21168144 -100.08420222 151.53495951 -119.28515625 133.1328125 C-135.89870026 115.82596758 -144.19750959 93.63319662 -144.0625 69.75 C-144.05404053 68.17134155 -144.05404053 68.17134155 -144.04541016 66.56079102 C-143.67261696 42.5968324 -133.50072335 21.5390758 -116.75 4.5625 C-85.45959487 -24.60551315 -33.38529436 -26.79010678 0 0 Z " fill="#3FDBFF" transform="translate(314.75,167.4375)"/>
<path d="M0 0 C22.11 0 44.22 0 67 0 C67 81.84 67 163.68 67 248 C44.89 248 22.78 248 0 248 C0 166.16 0 84.32 0 0 Z " fill="#020055" transform="translate(3555,623)"/>
<path d="M0 0 C22.11 0 44.22 0 67 0 C67 81.84 67 163.68 67 248 C44.89 248 22.78 248 0 248 C0 166.16 0 84.32 0 0 Z " fill="#020055" transform="translate(1961,623)"/>
<path d="M0 0 C5.94 0 11.88 0 18 0 C18.70382813 1.381875 19.40765625 2.76375 20.1328125 4.1875 C26.58228233 16.75112919 33.38550823 29.03858407 40.578125 41.19140625 C44.44682463 47.7584797 48.21848087 54.38234153 52 61 C52 40.87 52 20.74 52 0 C59.26 0 66.52 0 74 0 C73.67 35.64 73.34 71.28 73 108 C55 108 55 108 51.07421875 104.6171875 C49.81152344 102.36206055 49.81152344 102.36206055 48.6875 99.875 C47.74881097 98.12884547 46.81000415 96.38275426 45.87109375 94.63671875 C45.40815918 93.71552246 44.94522461 92.79432617 44.46826172 91.84521484 C41.9623333 86.98919725 39.07485724 82.36247724 36.25 77.6875 C31.41021395 69.50916139 26.71517515 61.25155651 22 53 C21.67 71.15 21.34 89.3 21 108 C14.07 108 7.14 108 0 108 C0 72.36 0 36.72 0 0 Z " fill="#020055" transform="translate(2221,912)"/>
<path d="M0 0 C5.94 0 11.88 0 18 0 C18.70382812 1.381875 19.40765625 2.76375 20.1328125 4.1875 C26.58228233 16.75112919 33.38550823 29.03858407 40.578125 41.19140625 C44.44682463 47.7584797 48.21848087 54.38234153 52 61 C52 40.87 52 20.74 52 0 C59.26 0 66.52 0 74 0 C73.67 35.64 73.34 71.28 73 108 C55 108 55 108 51.07421875 104.6171875 C49.81152344 102.36206055 49.81152344 102.36206055 48.6875 99.875 C47.74881097 98.12884547 46.81000415 96.38275426 45.87109375 94.63671875 C45.40815918 93.71552246 44.94522461 92.79432617 44.46826172 91.84521484 C41.9623333 86.98919725 39.07485724 82.36247724 36.25 77.6875 C31.41021395 69.50916139 26.71517515 61.25155651 22 53 C21.67 71.15 21.34 89.3 21 108 C14.07 108 7.14 108 0 108 C0 72.36 0 36.72 0 0 Z " fill="#020055" transform="translate(1700,912)"/>
<path d="M0 0 C5.17072038 4.80949241 7.27615278 10.52545831 8.125 17.4375 C7.32897552 23.69197804 5.66799716 28.93561557 1.6875 33.875 C2.55761719 34.49375 2.55761719 34.49375 3.4453125 35.125 C10.95846749 40.6792796 17.93668175 47.28167358 19.6875 56.875 C20.64875897 68.82546648 20.24702836 78.69896395 12.25 88.25 C1.42145236 99.62567426 -11.71779349 102.95330662 -26.97265625 103.8515625 C-35.77339176 104.05416341 -45.92485937 103.67088021 -54.3125 100.875 C-54.3125 65.565 -54.3125 30.255 -54.3125 -6.125 C-36.34447168 -10.61700708 -15.40547335 -12.07993759 0 0 Z M-33.3125 10.875 C-33.3125 17.145 -33.3125 23.415 -33.3125 29.875 C-26.54408316 30.84191669 -23.16665269 30.98819103 -17.3125 27.875 C-14.35717315 24.70857837 -13.33665575 23.08278741 -13.25 18.75 C-14.58435445 15.13939385 -16.07837095 13.90573219 -19.3125 11.875 C-22.43709726 10.85336947 -25.28849973 10.76942105 -28.5625 10.8125 C-30.91375 10.8434375 -30.91375 10.8434375 -33.3125 10.875 Z M-33.3125 49.875 C-33.4132812 52.23898468 -33.45223215 54.57311311 -33.4453125 56.9375 C-33.44626923 57.64398682 -33.44722595 58.35047363 -33.44821167 59.07836914 C-33.44889333 60.57470793 -33.44704005 62.07104967 -33.44287109 63.56738281 C-33.43752257 65.86530157 -33.44281651 68.16302486 -33.44921875 70.4609375 C-33.44855797 71.91145877 -33.4472768 73.36197991 -33.4453125 74.8125 C-33.44733673 75.5041626 -33.44936096 76.1958252 -33.45144653 76.90844727 C-33.71480733 80.17235638 -33.71480733 80.17235638 -32.3125 82.875 C-22.67657495 83.63544504 -13.28109057 84.19718756 -5.3125 77.875 C-1.98609504 74.29822048 -0.46706591 70.48248542 0 65.625 C-0.36563005 61.23743942 -1.47144106 58.18956876 -4.3125 54.875 C-10.8634276 49.6664756 -16.24230832 48.70595898 -24.5 48.75 C-25.60504883 48.74419922 -25.60504883 48.74419922 -26.73242188 48.73828125 C-30.3179406 48.41217913 -30.3179406 48.41217913 -33.3125 49.875 Z " fill="#020055" transform="translate(1199.3125,919.125)"/>
<path d="M0 0 C0.886875 0.5775 1.77375 1.155 2.6875 1.75 C14.05439336 12.80968002 18.75556011 27.72530043 19.3125 43.25 C18.937223 57.73986208 15.26298528 73.57367319 4.890625 84.35546875 C-9.1386722 96.55863842 -24.77542699 102.00906212 -43.48876953 100.84521484 C-59.41229292 99.58770708 -59.41229292 99.58770708 -61 98 C-61.09762523 96.5982167 -61.12631658 95.19155547 -61.12698364 93.78637695 C-61.12980347 92.87771881 -61.13262329 91.96906067 -61.13552856 91.03286743 C-61.13350433 90.02815399 -61.1314801 89.02344055 -61.12939453 87.98828125 C-61.13114685 86.9363559 -61.13289917 85.88443054 -61.13470459 84.80062866 C-61.13912543 81.30456926 -61.13618429 77.80855997 -61.1328125 74.3125 C-61.13348547 71.89493805 -61.13445544 69.47737617 -61.13571167 67.05981445 C-61.13718896 61.98550779 -61.13503309 56.91121869 -61.13037109 51.83691406 C-61.1246738 45.31615297 -61.12795263 38.79543304 -61.13394356 32.27467346 C-61.13754833 27.28031094 -61.13641097 22.28595826 -61.13381577 17.29159546 C-61.13314626 14.88650508 -61.13397572 12.48141382 -61.13629532 10.07632446 C-61.13882048 6.72143165 -61.13498317 3.3666065 -61.12939453 0.01171875 C-61.13141876 -0.99299469 -61.13344299 -1.99770813 -61.13552856 -3.03286743 C-61.13129883 -4.39585464 -61.13129883 -4.39585464 -61.12698364 -5.78637695 C-61.12660662 -6.58058548 -61.12622959 -7.37479401 -61.12584114 -8.19306946 C-61 -10 -61 -10 -60 -11 C-38.62993014 -14.03148101 -18.19890864 -12.06630737 0 0 Z M-40 9 C-40 32.43 -40 55.86 -40 80 C-28.44489423 80 -19.01606425 79.85653223 -10.49609375 71.765625 C-3.48866002 63.49575543 -1.52099048 54.34363806 -1.6796875 43.7109375 C-2.6530733 32.43390692 -6.948076 23.45305959 -15 15.609375 C-22.52548256 9.55371325 -30.53331897 9 -40 9 Z " fill="#020055" transform="translate(1952,922)"/>
<path d="M0 0 C-0.33 8.25 -0.66 16.5 -1 25 C-1.99 25 -2.98 25 -4 25 C-4.556875 24.2575 -5.11375 23.515 -5.6875 22.75 C-9.2568009 18.50542596 -13.81161122 16.72946293 -19 15 C-27.81771064 14.30054571 -35.17252962 14.72791563 -43 19 C-43.64582031 19.350625 -44.29164063 19.70125 -44.95703125 20.0625 C-51.99987811 24.48154117 -56.46585305 31.99615547 -58.5234375 39.94140625 C-60.32038151 51.47425181 -60.21890934 62.75193813 -54 73 C-53.00700091 74.00695224 -52.008836 75.00891478 -51 76 C-51 76.66 -51 77.32 -51 78 C-50.41992188 78.28617188 -49.83984375 78.57234375 -49.2421875 78.8671875 C-47.85495274 79.56805523 -46.48122062 80.29737563 -45.1328125 81.0703125 C-37.69156435 84.97913935 -29.54913523 85.23129238 -21.39453125 83.421875 C-17.74478308 82.17205231 -16.1701389 81.25520835 -14 78 C-13.63566627 75.87662229 -13.63566627 75.87662229 -13.5859375 73.55078125 C-13.55032715 72.78677002 -13.5147168 72.02275879 -13.47802734 71.2355957 C-13.42702881 69.78866333 -13.42702881 69.78866333 -13.375 68.3125 C-13.25125 65.239375 -13.1275 62.16625 -13 59 C-19.27 59.33 -25.54 59.66 -32 60 C-32 52.74 -32 45.48 -32 38 C-18.47 38 -4.94 38 9 38 C8.67 40.64 8.34 43.28 8 46 C7.92884719 47.41128186 7.8841403 48.82473029 7.88989258 50.23779297 C7.88902397 51.32965408 7.88902397 51.32965408 7.88813782 52.443573 C7.89024765 53.20211578 7.89235748 53.96065857 7.89453125 54.7421875 C7.88107791 56.40235677 7.86605525 58.06251393 7.84960938 59.72265625 C7.82682272 62.29877387 7.81249276 64.87350208 7.82495117 67.44970703 C7.89160229 86.29576166 7.89160229 86.29576166 1 94 C-8.32703387 102.88210883 -20.70260972 105.90190327 -33.33203125 106.03515625 C-47.12583301 105.36428333 -58.86993952 100.0199656 -68.375 89.96484375 C-79.04532076 77.06298957 -82.02140636 61.33844864 -81 45 C-79.33102817 29.92918439 -72.48255894 15.08452011 -61 5 C-42.43900485 -9.45185918 -20.51604823 -10.25802412 0 0 Z " fill="#020055" transform="translate(2487,917)"/>
<path d="M0 0 C8.86099904 6.32475602 13.71042126 15.25609746 16 25.75 C16.99943806 39.9919923 15.63595863 52.5156634 6.5 64.0625 C-0.34359053 71.48368257 -8.87909555 76.00842295 -18.93359375 76.62890625 C-31.67225547 77.10255249 -42.07158274 75.17071241 -51.75 66.3125 C-59.07365684 59.34902301 -63.69212645 50.4195893 -63.98828125 40.1875 C-64.29116056 26.92220476 -63.21812222 15.43661221 -53.75 5.3125 C-39.08451287 -9.78706074 -17.5799321 -10.5892544 0 0 Z " fill="#020055" transform="translate(3611.75,517.6875)"/>
<path d="M0 0 C8.86099904 6.32475602 13.71042126 15.25609746 16 25.75 C16.99943806 39.9919923 15.63595863 52.5156634 6.5 64.0625 C-0.34359053 71.48368257 -8.87909555 76.00842295 -18.93359375 76.62890625 C-31.67225547 77.10255249 -42.07158274 75.17071241 -51.75 66.3125 C-59.07365684 59.34902301 -63.69212645 50.4195893 -63.98828125 40.1875 C-64.29116056 26.92220476 -63.21812222 15.43661221 -53.75 5.3125 C-39.08451287 -9.78706074 -17.5799321 -10.5892544 0 0 Z " fill="#020055" transform="translate(2017.75,517.6875)"/>
<path d="M0 0 C6.42866899 6.42866899 10.42328194 13.75513967 10.63037109 22.95922852 C10.60271779 33.46622636 8.77261255 41.02509367 1.6171875 49.0703125 C0.25 50.25 0.25 50.25 -1.75 50.25 C2.64096036 61.51048573 7.2243074 72.67361684 12.0625 83.75 C12.53018799 84.82950928 12.99787598 85.90901855 13.47973633 87.02124023 C13.92599365 88.03516846 14.37225098 89.04909668 14.83203125 90.09375 C15.22624268 90.99287109 15.6204541 91.89199219 16.02661133 92.81835938 C17.18333828 95.29652123 17.18333828 95.29652123 18.90112305 97.44726562 C20.25 99.25 20.25 99.25 20.25 101.25 C12.33 101.25 4.41 101.25 -3.75 101.25 C-7.83350161 92.49315767 -11.46045346 83.60983673 -15 74.625 C-16.06474809 71.92329656 -17.13291511 69.22298126 -18.203125 66.5234375 C-18.66879883 65.34185059 -19.13447266 64.16026367 -19.61425781 62.94287109 C-20.49716699 60.37725253 -20.49716699 60.37725253 -21.75 59.25 C-26.04 59.25 -30.33 59.25 -34.75 59.25 C-34.75 72.78 -34.75 86.31 -34.75 100.25 C-41.68 100.25 -48.61 100.25 -55.75 100.25 C-55.75 64.61 -55.75 28.97 -55.75 -7.75 C-39.99438911 -15.62780544 -13.88514052 -8.83599852 0 0 Z M-34.75 11.25 C-34.75 20.49 -34.75 29.73 -34.75 39.25 C-27.197699 40.19403762 -23.41941627 40.24607168 -16.75 37.25 C-13.62225045 34.70870349 -10.87383873 32.18343556 -9.75 28.25 C-9.60905432 23.95115666 -9.64243004 21.59960425 -12.39453125 18.24609375 C-19.81060644 11.4539331 -24.34793545 11.25 -34.75 11.25 Z " fill="#020055" transform="translate(4199.75,919.75)"/>
<path d="M0 0 C6.42866899 6.42866899 10.42328194 13.75513967 10.63037109 22.95922852 C10.60271779 33.46622636 8.77261255 41.02509367 1.6171875 49.0703125 C0.25 50.25 0.25 50.25 -1.75 50.25 C2.64096036 61.51048573 7.2243074 72.67361684 12.0625 83.75 C12.53018799 84.82950928 12.99787598 85.90901855 13.47973633 87.02124023 C13.92599365 88.03516846 14.37225098 89.04909668 14.83203125 90.09375 C15.22624268 90.99287109 15.6204541 91.89199219 16.02661133 92.81835938 C17.18333828 95.29652123 17.18333828 95.29652123 18.90112305 97.44726562 C20.25 99.25 20.25 99.25 20.25 101.25 C12.33 101.25 4.41 101.25 -3.75 101.25 C-7.83350161 92.49315767 -11.46045346 83.60983673 -15 74.625 C-16.06474809 71.92329656 -17.13291511 69.22298126 -18.203125 66.5234375 C-18.66879883 65.34185059 -19.13447266 64.16026367 -19.61425781 62.94287109 C-20.49716699 60.37725253 -20.49716699 60.37725253 -21.75 59.25 C-26.04 59.25 -30.33 59.25 -34.75 59.25 C-34.75 72.78 -34.75 86.31 -34.75 100.25 C-41.68 100.25 -48.61 100.25 -55.75 100.25 C-55.75 64.61 -55.75 28.97 -55.75 -7.75 C-39.99438911 -15.62780544 -13.88514052 -8.83599852 0 0 Z M-34.75 11.25 C-34.75 20.49 -34.75 29.73 -34.75 39.25 C-27.197699 40.19403762 -23.41941627 40.24607168 -16.75 37.25 C-13.62225045 34.70870349 -10.87383873 32.18343556 -9.75 28.25 C-9.60905432 23.95115666 -9.64243004 21.59960425 -12.39453125 18.24609375 C-19.81060644 11.4539331 -24.34793545 11.25 -34.75 11.25 Z " fill="#020055" transform="translate(1385.75,919.75)"/>
<path d="M0 0 C6.42866899 6.42866899 10.42328194 13.75513967 10.63037109 22.95922852 C10.60271779 33.46622636 8.77261255 41.02509367 1.6171875 49.0703125 C0.25 50.25 0.25 50.25 -1.75 50.25 C2.64096036 61.51048573 7.2243074 72.67361684 12.0625 83.75 C12.53018799 84.82950928 12.99787598 85.90901855 13.47973633 87.02124023 C13.92599365 88.03516846 14.37225098 89.04909668 14.83203125 90.09375 C15.22624268 90.99287109 15.6204541 91.89199219 16.02661133 92.81835938 C17.18333828 95.29652123 17.18333828 95.29652123 18.90112305 97.44726562 C20.25 99.25 20.25 99.25 20.25 101.25 C12.33 101.25 4.41 101.25 -3.75 101.25 C-7.83350161 92.49315767 -11.46045346 83.60983673 -15 74.625 C-16.06474809 71.92329656 -17.13291511 69.22298126 -18.203125 66.5234375 C-18.66879883 65.34185059 -19.13447266 64.16026367 -19.61425781 62.94287109 C-20.49716699 60.37725253 -20.49716699 60.37725253 -21.75 59.25 C-26.04 59.25 -30.33 59.25 -34.75 59.25 C-34.75 72.78 -34.75 86.31 -34.75 100.25 C-41.68 100.25 -48.61 100.25 -55.75 100.25 C-55.75 64.61 -55.75 28.97 -55.75 -7.75 C-39.99438911 -15.62780544 -13.88514052 -8.83599852 0 0 Z M-34.75 11.25 C-34.75 20.49 -34.75 29.73 -34.75 39.25 C-27.197699 40.19403762 -23.41941627 40.24607168 -16.75 37.25 C-13.62225045 34.70870349 -10.87383873 32.18343556 -9.75 28.25 C-9.60905432 23.95115666 -9.64243004 21.59960425 -12.39453125 18.24609375 C-19.81060644 11.4539331 -24.34793545 11.25 -34.75 11.25 Z " fill="#020055" transform="translate(845.75,919.75)"/>
<path d="M0 0 C6.93 0 13.86 0 21 0 C21 14.19 21 28.38 21 43 C31.23 43 41.46 43 52 43 C52 28.81 52 14.62 52 0 C58.93 0 65.86 0 73 0 C73 35.97 73 71.94 73 109 C58 109 58 109 52 108 C52 93.15 52 78.3 52 63 C41.77 63 31.54 63 21 63 C21 78.18 21 93.36 21 109 C3 109 3 109 0 108 C0 72.36 0 36.72 0 0 Z " fill="#020055" transform="translate(2915,912)"/>
<path d="M0 0 C7.59 0 15.18 0 23 0 C23.78310547 2.86945312 23.78310547 2.86945312 24.58203125 5.796875 C26.94328036 14.18379938 29.83569641 22.37257535 32.74337769 30.58255005 C34.39652853 35.2532342 36.03398911 39.92941395 37.671875 44.60546875 C38.01725815 45.59099228 38.3626413 46.57651581 38.7184906 47.59190369 C42.6300341 58.77102163 46.46822863 69.97505878 50.28701782 81.18615723 C51.05353565 83.43567223 51.82125493 85.68477819 52.59017944 87.93347168 C53.66611379 91.08089401 54.73798754 94.22966818 55.80859375 97.37890625 C56.13285339 98.3258284 56.45711304 99.27275055 56.79119873 100.24836731 C57.08367493 101.11201401 57.37615112 101.97566071 57.67749023 102.86547852 C57.93425034 103.61958511 58.19101044 104.37369171 58.45555115 105.15065002 C59 107 59 107 59 109 C51.08 109 43.16 109 35 109 C33.2675 103.616875 33.2675 103.616875 31.5 98.125 C31.13455078 96.99465332 30.76910156 95.86430664 30.39257812 94.69970703 C30.10833984 93.81138184 29.82410156 92.92305664 29.53125 92.0078125 C29.23798828 91.09660645 28.94472656 90.18540039 28.64257812 89.24658203 C28 87 28 87 28 85 C16.78 85 5.56 85 -6 85 C-6.33 87.31 -6.66 89.62 -7 92 C-7.35908374 93.47721996 -7.75146568 94.94715571 -8.19140625 96.40234375 C-8.41376953 97.14677734 -8.63613281 97.89121094 -8.86523438 98.65820312 C-9.09533203 99.41037109 -9.32542969 100.16253906 -9.5625 100.9375 C-9.79646484 101.71673828 -10.03042969 102.49597656 -10.27148438 103.29882812 C-10.84317421 105.20057187 -11.42095691 107.10048226 -12 109 C-14.7084017 109.02714434 -17.41652721 109.04690846 -20.125 109.0625 C-20.88554688 109.07087891 -21.64609375 109.07925781 -22.4296875 109.08789062 C-26.7389644 109.10646509 -30.75516474 108.86117265 -35 108 C-32.74973294 99.01762603 -29.82279021 90.29717722 -26.83534622 81.540905 C-25.95684567 78.96563892 -25.08258434 76.38896623 -24.20932007 73.81192017 C-22.0390515 67.41006679 -19.86192539 61.01055069 -17.68463135 54.61108398 C-15.84211171 49.19483271 -14.00247195 43.77761921 -12.16648483 38.35914993 C-11.31578995 35.85220173 -10.46105846 33.346656 -9.60610962 30.84115601 C-6.13616732 20.62838871 -2.98121778 10.36689982 0 0 Z M10 32 C8.71296925 36.21593849 7.4313732 40.43347888 6.15478516 44.65258789 C5.7197527 46.08761105 5.28323904 47.52218604 4.84521484 48.95629883 C4.2158221 51.01788118 3.59177587 53.08101718 2.96875 55.14453125 C2.59169922 56.38565674 2.21464844 57.62678223 1.82617188 58.90551758 C0.87102635 61.94926769 0.87102635 61.94926769 1 65 C7.93 65 14.86 65 22 65 C18.7 54.11 15.4 43.22 12 32 C11.34 32 10.68 32 10 32 Z " fill="#020055" transform="translate(1536,912)"/>
<path d="M0 0 C6.93 0 13.86 0 21 0 C21.01401855 3.39055664 21.01401855 3.39055664 21.02832031 6.84960938 C21.06216429 14.33757419 21.11775432 21.82526557 21.18390274 29.31301117 C21.22332667 33.8506154 21.25553997 38.38802706 21.27099609 42.92578125 C21.28619634 47.30915936 21.32070112 51.69200784 21.36830902 56.07514954 C21.38308822 57.74314253 21.39103902 59.41121116 21.39188385 61.07926941 C21.22973959 73.15129764 21.22973959 73.15129764 26 84 C30.67979548 88.45151278 34.51685412 89.33128995 40.78515625 89.19921875 C44.06952201 88.90379961 45.58256307 88.27929768 48 86 C52.12636357 78.86628671 53.10354748 71.97233119 53.20532227 63.80126953 C53.21522186 63.10788986 53.22512146 62.41451019 53.23532104 61.70011902 C53.26669326 59.42771723 53.29159647 57.15529459 53.31640625 54.8828125 C53.3369968 53.29954512 53.3579938 51.71628297 53.37937927 50.13302612 C53.43438309 45.98043071 53.48388735 41.82778749 53.53222656 37.67510986 C53.58260068 33.43180116 53.63820342 29.18856127 53.69335938 24.9453125 C53.80067538 16.63026513 53.90169488 8.31515879 54 0 C60.6 0 67.2 0 74 0 C74.06797285 10.12760575 74.12292939 20.25505819 74.15543652 30.38284111 C74.171044 35.08636882 74.1921917 39.78973137 74.22631836 44.49316406 C74.25908815 49.03840873 74.27688994 53.58349527 74.28463173 58.12884903 C74.29014377 59.85666515 74.30090692 61.58447334 74.31719017 63.31222153 C74.44855933 77.83855362 73.04141086 90.72744737 62.6875 101.8125 C56.2296937 107.81201037 48.76350895 110.47440399 40 111 C28.72220286 110.56060531 18.84509683 108.58914076 10.1875 100.875 C-0.60698039 89.13854844 -0.29287383 73.31799189 -0.1953125 58.3984375 C-0.19157557 56.70879281 -0.18873181 55.01914593 -0.18673706 53.32949829 C-0.17915411 48.91381697 -0.1595524 44.49827027 -0.1373291 40.0826416 C-0.11675474 35.5642275 -0.10771072 31.04579134 -0.09765625 26.52734375 C-0.07630069 17.68482761 -0.041163 8.84244614 0 0 Z " fill="#020055" transform="translate(3951,912)"/>
<path d="M0 0 C6.93 0 13.86 0 21 0 C21.01401855 3.39055664 21.01401855 3.39055664 21.02832031 6.84960938 C21.06216429 14.33757419 21.11775432 21.82526557 21.18390274 29.31301117 C21.22332667 33.8506154 21.25553997 38.38802706 21.27099609 42.92578125 C21.28619634 47.30915936 21.32070112 51.69200784 21.36830902 56.07514954 C21.38308822 57.74314253 21.39103902 59.41121116 21.39188385 61.07926941 C21.22973959 73.15129764 21.22973959 73.15129764 26 84 C30.67979548 88.45151278 34.51685412 89.33128995 40.78515625 89.19921875 C44.06952201 88.90379961 45.58256307 88.27929768 48 86 C52.12636357 78.86628671 53.10354748 71.97233119 53.20532227 63.80126953 C53.21522186 63.10788986 53.22512146 62.41451019 53.23532104 61.70011902 C53.26669326 59.42771723 53.29159647 57.15529459 53.31640625 54.8828125 C53.3369968 53.29954512 53.3579938 51.71628297 53.37937927 50.13302612 C53.43438309 45.98043071 53.48388735 41.82778749 53.53222656 37.67510986 C53.58260068 33.43180116 53.63820342 29.18856127 53.69335938 24.9453125 C53.80067538 16.63026513 53.90169488 8.31515879 54 0 C60.6 0 67.2 0 74 0 C74.06797285 10.12760575 74.12292939 20.25505819 74.15543652 30.38284111 C74.171044 35.08636882 74.1921917 39.78973137 74.22631836 44.49316406 C74.25908815 49.03840873 74.27688994 53.58349527 74.28463173 58.12884903 C74.29014377 59.85666515 74.30090692 61.58447334 74.31719017 63.31222153 C74.44855933 77.83855362 73.04141086 90.72744737 62.6875 101.8125 C56.2296937 107.81201037 48.76350895 110.47440399 40 111 C28.72220286 110.56060531 18.84509683 108.58914076 10.1875 100.875 C-0.60698039 89.13854844 -0.29287383 73.31799189 -0.1953125 58.3984375 C-0.19157557 56.70879281 -0.18873181 55.01914593 -0.18673706 53.32949829 C-0.17915411 48.91381697 -0.1595524 44.49827027 -0.1373291 40.0826416 C-0.11675474 35.5642275 -0.10771072 31.04579134 -0.09765625 26.52734375 C-0.07630069 17.68482761 -0.041163 8.84244614 0 0 Z " fill="#020055" transform="translate(3582,912)"/>
<path d="M0 0 C19.14 0 38.28 0 58 0 C57.67 7.26 57.34 14.52 57 22 C45.12 21.67 33.24 21.34 21 21 C21 27.27 21 33.54 21 40 C31.56 40 42.12 40 53 40 C53 46.93 53 53.86 53 61 C42.44 60.67 31.88 60.34 21 60 C21 69.24 21 78.48 21 88 C33.87 87.67 46.74 87.34 60 87 C60 93.93 60 100.86 60 108 C40.2 108 20.4 108 0 108 C0 72.36 0 36.72 0 0 Z " fill="#020055" transform="translate(4327,912)"/>
<path d="M0 0 C19.14 0 38.28 0 58 0 C57.67 7.26 57.34 14.52 57 22 C45.12 21.67 33.24 21.34 21 21 C21 27.27 21 33.54 21 40 C31.56 40 42.12 40 53 40 C53 46.93 53 53.86 53 61 C42.44 60.67 31.88 60.34 21 60 C21 69.24 21 78.48 21 88 C33.87 87.67 46.74 87.34 60 87 C60 93.93 60 100.86 60 108 C40.2 108 20.4 108 0 108 C0 72.36 0 36.72 0 0 Z " fill="#020055" transform="translate(3106,912)"/>
<path d="M0 0 C19.14 0 38.28 0 58 0 C57.67 7.26 57.34 14.52 57 22 C45.12 21.67 33.24 21.34 21 21 C21 27.27 21 33.54 21 40 C31.56 40 42.12 40 53 40 C53 46.93 53 53.86 53 61 C42.44 60.67 31.88 60.34 21 60 C21 69.24 21 78.48 21 88 C33.87 87.67 46.74 87.34 60 87 C60 93.93 60 100.86 60 108 C40.2 108 20.4 108 0 108 C0 72.36 0 36.72 0 0 Z " fill="#020055" transform="translate(973,912)"/>
<path d="M0 0 C19.14 0 38.28 0 58 0 C57.67 7.26 57.34 14.52 57 22 C45.12 21.67 33.24 21.34 21 21 C21 27.93 21 34.86 21 42 C31.56 41.67 42.12 41.34 53 41 C53 47.93 53 54.86 53 62 C42.44 62 31.88 62 21 62 C21 77.18 21 92.36 21 108 C14.07 108 7.14 108 0 108 C0 72.36 0 36.72 0 0 Z " fill="#020055" transform="translate(3411,912)"/>
<path d="M0 0 C0.66 0 1.32 0 2 0 C2 7.26 2 14.52 2 22 C-11.86 21.505 -11.86 21.505 -26 21 C-26 50.7 -26 80.4 -26 111 C-44 111 -44 111 -46 110 C-46 80.63 -46 51.26 -46 21 C-60.05883105 21.44329238 -60.05883105 21.44329238 -74 23 C-74 15.74 -74 8.48 -74 1 C-71.7938501 1.00523682 -69.5877002 1.01047363 -67.31469727 1.01586914 C-60.04238902 1.03240596 -52.77007995 1.04347159 -45.49775791 1.05181217 C-41.08662996 1.05704069 -36.6755212 1.06413777 -32.2644043 1.07543945 C-28.01098885 1.08626944 -23.75759191 1.09227707 -19.50416374 1.09487724 C-17.87778367 1.09673129 -16.25140466 1.10035152 -14.62503242 1.10573006 C-12.35489807 1.11294198 -10.08484115 1.11399088 -7.81469727 1.11352539 C-6.52008072 1.115746 -5.22546417 1.11796661 -3.89161682 1.12025452 C-1.10557617 1.33128112 -1.10557617 1.33128112 0 0 Z " fill="#020055" transform="translate(3840,910)"/>
<path d="M0 0 C0.66 0 1.32 0 2 0 C2 7.26 2 14.52 2 22 C-11.86 21.505 -11.86 21.505 -26 21 C-26 50.7 -26 80.4 -26 111 C-44 111 -44 111 -46 110 C-46 80.63 -46 51.26 -46 21 C-60.05883105 21.44329238 -60.05883105 21.44329238 -74 23 C-74 15.74 -74 8.48 -74 1 C-71.7938501 1.00523682 -69.5877002 1.01047363 -67.31469727 1.01586914 C-60.04238902 1.03240596 -52.77007995 1.04347159 -45.49775791 1.05181217 C-41.08662996 1.05704069 -36.6755212 1.06413777 -32.2644043 1.07543945 C-28.01098885 1.08626944 -23.75759191 1.09227707 -19.50416374 1.09487724 C-17.87778367 1.09673129 -16.25140466 1.10035152 -14.62503242 1.10573006 C-12.35489807 1.11294198 -10.08484115 1.11399088 -7.81469727 1.11352539 C-6.52008072 1.115746 -5.22546417 1.11796661 -3.89161682 1.12025452 C-1.10557617 1.33128112 -1.10557617 1.33128112 0 0 Z " fill="#020055" transform="translate(2804,910)"/>
<path d="M0 0 C6.6 0 13.2 0 20 0 C20 35.97 20 71.94 20 109 C6 109 6 109 0 108 C0 72.36 0 36.72 0 0 Z " fill="#020055" transform="translate(2083,912)"/>
</svg>
