<?xml version="1.0" encoding="UTF-8"?><svg id="Layer_1" xmlns="http://www.w3.org/2000/svg" xmlns:xlink="http://www.w3.org/1999/xlink" viewBox="0 0 861.36 1080"><defs><style>.cls-1{fill:url(#linear-gradient);}.cls-1,.cls-2,.cls-3,.cls-4{stroke-width:0px;}.cls-5{font-family:Ubuntu-Bold, Ubuntu;font-size:314.7px;font-weight:700;letter-spacing:.07em;}.cls-5,.cls-6,.cls-4{fill:#020055;}.cls-6{font-family:HammersmithOne, 'Hammersmith One';font-size:64.82px;letter-spacing:.59em;}.cls-2{fill:url(#linear-gradient-2);}.cls-3{fill:#3fdbff;}</style><linearGradient id="linear-gradient" x1="272.36" y1="411.01" x2="376.12" y2="424.76" gradientUnits="userSpaceOnUse"><stop offset=".06" stop-color="#2272ae"/><stop offset=".83" stop-color="#020055"/></linearGradient><linearGradient id="linear-gradient-2" x1="410.56" y1="437.1" x2="597.79" y2="437.1" gradientUnits="userSpaceOnUse"><stop offset="0" stop-color="#3fdbff"/><stop offset="1" stop-color="#020055"/></linearGradient></defs><text class="cls-5" transform="translate(37.78 927.6) scale(.94 1)"><tspan x="0" y="0">ballo</tspan></text><text class="cls-6" transform="translate(54.71 1014.14) scale(.94 1)"><tspan x="0" y="0">INNOVATIONS</tspan></text><path class="cls-4" d="m561.96,553.46c-8.8,11.94-32.71,42.96-73.79,57.85-18.92,6.86-38.16,9.07-56.96,11.23-19.46,2.24-35.86,2.59-47.57,2.45.27-28.86.54-57.72.82-86.58,13.1.66,39.76.14,68-14.67,16.35-8.58,27.88-19.13,35.27-27.18h0c12.74-15.98,18.95-34.37,18.67-54.78-.34-25.39-9.99-46.81-28.67-63.98-11.35-10.43-24.14-16.92-38.23-20.12-16.82-3.82-28.93-18.47-28.93-35.72v-.5c0-32.9,32.06-56.41,63.35-46.27,34.31,11.12,68.12,33.66,91.59,68.57,44.73,66.56,42.78,146.8-3.55,209.67Z"/><path class="cls-4" d="m384.77,370.55c.87,81.03.27,162.09.24,243.13,0,3.66-.42,7.31-.68,11.31h-117.23V196.43c30.92-.46,58.37,10.57,80.7,41.74,25.76,35.95,36.43,81.88,36.96,132.39Z"/><path class="cls-3" d="m328,49.61c-35.01-.28-63.78,30.75-61.29,66.35,2.51,35.95,30.48,60.44,64.76,59.48,35.82-1,63.61-31.33,61.71-64.84-2.03-35.83-31.14-63.06-65.18-60.99Z"/><path class="cls-1" d="m370.12,422.65c-20.8,87.77-64.02,155.9-103.56,203.61V195.17c9.13-.02,22.73,1.09,37.51,7.12,41.88,17.08,58.56,59.5,65.3,76.65,6.08,15.47,20.76,59.28.75,143.71Z"/><path class="cls-2" d="m568.43,546.6c-13.98,19.71-34.5,37.05-34.5,37.05-9.28,7.84-17.8,13.67-24.35,17.77,50.22-68.31,62.39-146.25,31.94-192.15-7.84-11.83-21.17-31.93-45.93-42.69-32.38-14.07-63.57-3.15-78.45-23.17-5.48-7.38-6.48-15.9-6.57-21.43-.04-3.53.28-8.27,1.78-13.63,2.18-7.78,5.87-13.41,8.48-16.77,2.79-3.67,8.21-9.78,16.96-14.06,2.13-1.04,10.4-4.89,23.37-4.72,7.02.09,23.17,1.46,50.35,19.27,10.65,6.98,29.04,19.26,46.87,42.02,28.75,36.7,35.61,74.59,37.24,85.04,7.82,50.06-6.32,98.08-27.17,127.48Z"/></svg>