<?xml version="1.0" encoding="UTF-8"?><svg id="Layer_1" xmlns="http://www.w3.org/2000/svg" xmlns:xlink="http://www.w3.org/1999/xlink" viewBox="0 0 1080 1080"><defs><style>.cls-1{fill:url(#linear-gradient);}.cls-1,.cls-2,.cls-3,.cls-4{stroke-width:0px;}.cls-2{fill:url(#linear-gradient-2);}.cls-3{fill:#3fdbff;}.cls-4{fill:#020055;}</style><linearGradient id="linear-gradient" x1="290.78" y1="674.24" x2="474.33" y2="698.56" gradientUnits="userSpaceOnUse"><stop offset=".06" stop-color="#2272ae"/><stop offset=".83" stop-color="#020055"/></linearGradient><linearGradient id="linear-gradient-2" x1="535.27" y1="720.39" x2="866.5" y2="720.39" gradientUnits="userSpaceOnUse"><stop offset="0" stop-color="#3fdbff"/><stop offset="1" stop-color="#020055"/></linearGradient></defs><path class="cls-4" d="m803.12,926.25c-15.57,21.13-57.88,76.01-130.54,102.35-33.47,12.13-67.51,16.05-100.77,19.87-34.43,3.96-63.45,4.58-84.16,4.33.48-51.06.96-102.11,1.44-153.17,23.18,1.17,70.34.25,120.3-25.96,28.93-15.17,49.32-33.85,62.39-48.08h0c22.53-28.26,33.52-60.81,33.03-96.92-.6-44.92-17.68-82.81-50.73-113.18-20.08-18.45-42.71-29.93-67.63-35.59-29.75-6.75-51.19-32.68-51.19-63.19v-.88c0-58.2,56.71-99.8,112.08-81.85,60.7,19.67,120.52,59.54,162.04,121.32,79.13,117.75,75.69,259.7-6.27,370.94Z"/><path class="cls-4" d="m489.64,602.66c1.54,143.35.47,286.75.42,430.13,0,6.47-.75,12.93-1.2,20.01h-207.39V294.61c54.71-.82,103.26,18.69,142.77,73.84,45.57,63.6,64.45,144.85,65.4,234.21Z"/><path class="cls-3" d="m389.21,34.87c-61.93-.49-112.84,54.39-108.43,117.38,4.44,63.6,53.93,106.93,114.57,105.23,63.37-1.78,112.54-55.43,109.18-114.72-3.6-63.38-55.08-111.56-115.31-107.89Z"/><path class="cls-1" d="m463.72,694.83c-36.79,155.28-113.27,275.82-183.21,360.21V292.39c16.15-.03,40.21,1.94,66.36,12.6,74.09,30.22,103.6,105.26,115.52,135.6,10.76,27.36,36.72,104.88,1.33,254.24Z"/><path class="cls-2" d="m814.57,914.11c-24.73,34.86-61.04,65.55-61.04,65.55-16.42,13.87-31.5,24.19-43.08,31.43,88.84-120.85,110.38-258.73,56.51-339.94-13.88-20.92-37.45-56.48-81.26-75.52-57.29-24.89-112.47-5.58-138.79-41-9.7-13.05-11.46-28.12-11.63-37.91-.08-6.24.49-14.63,3.15-24.11,3.85-13.76,10.38-23.72,15-29.66,4.93-6.5,14.52-17.3,30-24.88,3.77-1.85,18.41-8.65,41.35-8.36,12.41.16,40.99,2.58,89.08,34.09,18.85,12.35,51.38,34.08,82.92,74.34,50.86,64.93,62.99,131.96,65.88,150.44,13.84,88.56-11.18,173.52-48.07,225.53Z"/></svg>