<?xml version="1.0" encoding="UTF-8"?><svg id="Layer_1" xmlns="http://www.w3.org/2000/svg" viewBox="0 0 1370.25 1595.94"><defs><style>.cls-1{fill:#fff;stroke-width:0px;}</style></defs><path class="cls-1" d="m1001.62,1235.44c-18.07,24.53-67.19,88.25-151.56,118.83-38.86,14.09-78.38,18.63-116.99,23.07-39.97,4.6-73.67,5.32-97.71,5.03.56-59.28,1.12-118.56,1.68-177.83,26.91,1.36,81.66.29,139.67-30.14,33.59-17.62,57.26-39.3,72.44-55.83h0c26.16-32.81,38.92-70.6,38.35-112.52-.69-52.16-20.52-96.15-58.89-131.4-23.31-21.42-49.58-34.75-78.52-41.32-34.54-7.84-59.43-37.94-59.43-73.36v-1.02c0-67.57,65.85-115.87,130.12-95.03,70.47,22.84,139.93,69.13,188.13,140.85,91.88,136.71,87.88,301.52-7.28,430.67Z"/><path class="cls-1" d="m637.67,859.75c1.79,166.43.55,332.92.49,499.39,0,7.51-.87,15.01-1.4,23.24h-240.78V502.1c63.51-.95,119.89,21.7,165.76,85.73,52.91,73.84,74.82,168.18,75.93,271.92Z"/><path class="cls-1" d="m521.07,200.53c-71.91-.57-131,63.15-125.89,136.28,5.16,73.84,62.61,124.15,133.02,122.17,73.57-2.06,130.66-64.36,126.76-133.19-4.18-73.59-63.95-129.52-133.88-125.26Z"/><path class="cls-1" d="m607.58,966.76c-42.72,180.29-131.5,320.23-212.71,418.21V499.52c18.75-.03,46.68,2.25,77.04,14.63,86.02,35.08,120.28,122.21,134.13,157.44,12.49,31.77,42.63,121.77,1.55,295.17Z"/><path class="cls-1" d="m1014.92,1221.34c-28.71,40.48-70.87,76.1-70.87,76.1-19.06,16.11-36.57,28.08-50.02,36.5,103.14-140.31,128.15-300.39,65.61-394.68-16.11-24.29-43.47-65.58-94.35-87.67-66.52-28.89-130.58-6.47-161.14-47.6-11.26-15.15-13.31-32.65-13.5-44.01-.09-7.25.57-16.99,3.65-28,4.47-15.98,12.05-27.54,17.41-34.44,5.72-7.54,16.85-20.08,34.83-28.89,4.38-2.15,21.37-10.05,48.01-9.7,14.41.19,47.59,2.99,103.42,39.58,21.88,14.34,59.66,39.56,96.27,86.31,59.04,75.38,73.14,153.21,76.49,174.66,16.06,102.83-12.98,201.46-55.81,261.85Z"/></svg>