<?xml version="1.0" encoding="UTF-8"?><svg id="Layer_1" xmlns="http://www.w3.org/2000/svg" viewBox="0 0 2180.48 696.61"><defs><style>.cls-1{fill:#1d1d1b;font-family:HammersmithOne, 'Hammersmith One';font-size:46.91px;letter-spacing:.07em;}.cls-2{fill:#3fdbff;}.cls-2,.cls-3,.cls-4,.cls-5,.cls-6{stroke-width:0px;}.cls-3{fill:#0b4d8c;}.cls-4{fill:#2273af;}.cls-5{fill:#bdd4dc;}.cls-6{fill:#020055;}</style></defs><rect class="cls-2" x="151.08" y="135.95" width="347.67" height="347.67" rx="173.83" ry="173.83"/><rect class="cls-3" x="928.6" y="130.44" width="347.67" height="347.67" rx="173.83" ry="173.83"/><rect class="cls-5" x="1700.32" y="131.53" width="347.67" height="347.67" rx="173.83" ry="173.83"/><rect class="cls-6" x="1319.77" y="131.2" width="347.67" height="347.67" rx="173.83" ry="173.83"/><rect class="cls-4" x="539.04" y="135.58" width="347.67" height="347.67" rx="173.83" ry="173.83"/><text class="cls-1" transform="translate(184.81 550.04) scale(.94 1)"><tspan x="0" y="0">HEX: 3FDBFF</tspan></text><text class="cls-1" transform="translate(557.01 549.02) scale(.94 1)"><tspan x="0" y="0">HEX: 2273AF</tspan></text><text class="cls-1" transform="translate(954.04 547.95) scale(.94 1)"><tspan x="0" y="0">HEX: 0B4D8C</tspan></text><text class="cls-1" transform="translate(1318.89 550.5) scale(.94 1)"><tspan x="0" y="0">HEX: 020055</tspan></text><text class="cls-1" transform="translate(1714.21 543.56) scale(.94 1)"><tspan x="0" y="0">HEX: BDD4DC</tspan></text></svg>